<?xml version="1.0" encoding="UTF-8" standalone="no"?>
<!-- Generator: Adobe Illustrator 24.1.0, SVG Export Plug-In . SVG Version: 6.00 Build 0)  -->

<svg
   version="1.1"
   id="Layer_1"
   x="0px"
   y="0px"
   viewBox="0 0 240 234"
   style="enable-background:new 0 0 240 234;"
   xml:space="preserve"
   sodipodi:docname="3ds-max-240.svg"
   inkscape:version="1.4 (86a8ad7, 2024-10-11)"
   xmlns:inkscape="http://www.inkscape.org/namespaces/inkscape"
   xmlns:sodipodi="http://sodipodi.sourceforge.net/DTD/sodipodi-0.dtd"
   xmlns="http://www.w3.org/2000/svg"
   xmlns:svg="http://www.w3.org/2000/svg"><defs
   id="defs3" /><sodipodi:namedview
   id="namedview3"
   pagecolor="#505050"
   bordercolor="#eeeeee"
   borderopacity="1"
   inkscape:showpageshadow="0"
   inkscape:pageopacity="0"
   inkscape:pagecheckerboard="0"
   inkscape:deskcolor="#505050"
   inkscape:zoom="0.95942907"
   inkscape:cx="104.7498"
   inkscape:cy="124.55324"
   inkscape:window-width="1600"
   inkscape:window-height="837"
   inkscape:window-x="-8"
   inkscape:window-y="-8"
   inkscape:window-maximized="1"
   inkscape:current-layer="Layer_1" />
<style
   type="text/css"
   id="style1">
	.st0{fill:#001E36;}
	.st1{fill:#31A8FF;}
</style>

<style
   type="text/css"
   id="style1-2">
	.st0{fill:#00005B;}
	.st1{fill:#9999FF;}
</style><style
   id="style1-4">
		.s0 { fill: #09a1a1 } 
		.s1 { fill: #001717 } 
		.s2 { fill: #015051 } 
		.s3 { fill: #016b6b } 
		.s4 { fill: #002122 } 
		.s5 { fill: #013535 } 
		.s6 { fill: #ffffff } 
	</style><g
   id="g3"
   transform="translate(0,-3)"><path
     fill-rule="evenodd"
     class="s0"
     d="M 240,0 V 240 H 0 V 0 Z"
     id="path1-5" /><g
     id="XMLID_2_"><path
       class="s1"
       d="m 111.7,78.6 -0.2,-0.1 V 57.4 l 0.2,-0.2 0.1,-0.1 77.9,50.5 z m 0,58 78,-29 -77.9,50.5 -0.1,-0.1 h -0.2 v -21.3 z"
       id="path2-5" /><path
       class="s2"
       d="m 147.6,23.7 42.1,83.9 -77.9,-50.5 -0.1,-0.1 35.7,-33.1 z m 42,83.9 -42,83.9 -0.3,-0.2 -35.6,-33.1 h -0.1 l 0.1,-0.1 z"
       id="path3-1" /><path
       class="s3"
       d="m 111.7,57 0.1,0.1 -0.1,0.1 h -57 L 54.2,57 68.4,23.9 h 0.1 78.9 z m 0,0.2 -0.2,0.2 v -0.2 z m 0,100.7 0.1,0.1 -0.1,0.1 35.7,33.1 H 68.5 l -0.1,0.1 -14.3,-33.2 0.5,-0.2 h 56.6 l 0.3,0.3 v -0.3 z"
       id="path4" /><path
       class="s2"
       d="m 111.7,78.6 78,29 -78,28.9 v 0.1 l -0.2,0.1 V 78.5 Z"
       id="path5" /><path
       class="s3"
       d="m 111.5,158 v 0.2 l -0.3,-0.2 z"
       id="path6" /><path
       class="s4"
       d="M 111.5,136.7 V 158 h -0.3 L 95,142.8 Z"
       id="path7" /><path
       class="s3"
       d="m 111.5,136.6 v 0.1 L 95,142.8 57.6,107.6 v -0.1 L 95,72.3 l 16.5,6.2 v 29.1 z"
       id="path8" /><path
       class="s4"
       d="M 111.5,57.4 V 78.5 L 95,72.3 Z"
       id="path9" /><path
       class="s5"
       d="m 111.5,57.2 v 0.2 L 95,72.3 54.7,57.2 Z M 111.2,158 H 54.7 L 95,142.8 Z"
       id="path10" /></g><path
     class="s6"
     d="m 85,204.6 h 6.5 l 2.2,8.2 0.7,3.3 h 0.1 l 0.7,-3.3 2,-8.2 h 6.5 v 25.1 h -5.3 v -5.9 q 0,-1.1 0.1,-2.8 0.1,-1.7 0.2,-3.6 0.1,-1.8 0.2,-3.5 0.2,-1.7 0.3,-2.8 h -0.1 l -2.1,7.4 -1.3,4.6 h -2.9 l -1.3,-4.6 -1.9,-7.4 h -0.2 q 0.1,1.1 0.3,2.8 0.1,1.7 0.2,3.5 0.2,1.9 0.3,3.6 0.1,1.7 0.1,2.8 v 5.9 H 85 Z m 40.2,19.8 h -6.9 l -1.2,5.3 h -6.8 l 7.6,-25.1 h 8 l 7.6,25.1 h -7.1 z m -1.1,-5.1 -0.4,-1.8 q -0.5,-1.8 -0.9,-3.9 -0.5,-2.1 -0.9,-4 h -0.2 q -0.4,1.9 -0.9,4 -0.4,2.1 -0.8,3.9 l -0.4,1.8 z m 21.2,-2.4 -6.8,-12.2 h 7.4 l 2,4 q 0.4,0.9 0.9,2 0.5,1 1,2.2 h 0.2 q 0.4,-1.2 0.8,-2.2 0.4,-1.1 0.8,-2 l 1.8,-4 h 7.1 l -6.8,12.5 7.2,12.5 h -7.4 l -2.3,-4.4 q -0.5,-1 -1,-2 -0.4,-1 -0.9,-2.2 h -0.2 q -0.4,1.2 -0.9,2.2 -0.4,1 -0.9,2 l -2.1,4.4 h -7.1 z"
     id="path11" /></g></svg>
