<svg version="1.2" xmlns="http://www.w3.org/2000/svg" viewBox="0 0 240 240" width="50" height="50">
	<title>3ds-max-full-logo-svgrepo-com</title>
	<style>
		.s0 { fill: #09a1a1 } 
		.s1 { fill: #001717 } 
		.s2 { fill: #015051 } 
		.s3 { fill: #016b6b } 
		.s4 { fill: #002122 } 
		.s5 { fill: #013535 } 
		.s6 { fill: #ffffff } 
	</style>
	<path fill-rule="evenodd" class="s0" d="m240 0v240h-240v-240z"/>
	<g id="XMLID_2_">
		<path class="s1" d="m111.7 78.6l-0.2-0.1v-21.1l0.2-0.2 0.1-0.1 77.9 50.5-78-29zm0 58l78-29-77.9 50.5-0.1-0.1h-0.2v-21.3z"/>
		<path class="s2" d="m147.6 23.7l42.1 83.9-77.9-50.5-0.1-0.1 35.7-33.1zm42 83.9l-42 83.9-0.3-0.2-35.6-33.1h-0.1l0.1-0.1z"/>
		<path class="s3" d="m111.7 57l0.1 0.1-0.1 0.1h-57l-0.5-0.2 14.2-33.1h0.1 78.9l-35.7 33.1zm0 0.2l-0.2 0.2v-0.2zm0 100.7l0.1 0.1-0.1 0.1 35.7 33.1h-78.9l-0.1 0.1-14.3-33.2 0.5-0.2h56.6l0.3 0.3v-0.3z"/>
		<path class="s2" d="m111.7 78.6l78 29-78 28.9v0.1l-0.2 0.1v-58.2l0.2 0.1z"/>
		<path class="s3" d="m111.5 158v0.2l-0.3-0.2z"/>
		<path class="s4" d="m111.5 136.7v21.3h-0.3l-16.2-15.2z"/>
		<path class="s3" d="m111.5 136.6v0.1l-16.5 6.1-37.4-35.2v-0.1l37.4-35.2 16.5 6.2v29.1z"/>
		<path class="s4" d="m111.5 57.4v21.1l-16.5-6.2z"/>
		<path class="s5" d="m111.5 57.2v0.2l-16.5 14.9-40.3-15.1zm-0.3 100.8h-56.5l40.3-15.2z"/>
	</g>
	<path class="s6" d="m85 204.6h6.5l2.2 8.2 0.7 3.3h0.1l0.7-3.3 2-8.2h6.5v25.1h-5.3v-5.9q0-1.1 0.1-2.8 0.1-1.7 0.2-3.6 0.1-1.8 0.2-3.5 0.2-1.7 0.3-2.8h-0.1l-2.1 7.4-1.3 4.6h-2.9l-1.3-4.6-1.9-7.4h-0.2q0.1 1.1 0.3 2.8 0.1 1.7 0.2 3.5 0.2 1.9 0.3 3.6 0.1 1.7 0.1 2.8v5.9h-5.3zm40.2 19.8h-6.9l-1.2 5.3h-6.8l7.6-25.1h8l7.6 25.1h-7.1zm-1.1-5.1l-0.4-1.8q-0.5-1.8-0.9-3.9-0.5-2.1-0.9-4h-0.2q-0.4 1.9-0.9 4-0.4 2.1-0.8 3.9l-0.4 1.8zm21.2-2.4l-6.8-12.2h7.4l2 4q0.4 0.9 0.9 2 0.5 1 1 2.2h0.2q0.4-1.2 0.8-2.2 0.4-1.1 0.8-2l1.8-4h7.1l-6.8 12.5 7.2 12.5h-7.4l-2.3-4.4q-0.5-1-1-2-0.4-1-0.9-2.2h-0.2q-0.4 1.2-0.9 2.2-0.4 1-0.9 2l-2.1 4.4h-7.1z"/>
</svg>