<?xml version="1.0" encoding="UTF-8" standalone="no"?>
<svg
   version="1.2"
   viewBox="0 0 240 234"
   width="240"
   height="234"
   id="svg4"
   sodipodi:docname="cinema-240.svg"
   inkscape:version="1.4 (86a8ad7, 2024-10-11)"
   xmlns:inkscape="http://www.inkscape.org/namespaces/inkscape"
   xmlns:sodipodi="http://sodipodi.sourceforge.net/DTD/sodipodi-0.dtd"
   xmlns="http://www.w3.org/2000/svg"
   xmlns:svg="http://www.w3.org/2000/svg">
  <defs
     id="defs4" />
  <sodipodi:namedview
     id="namedview4"
     pagecolor="#505050"
     bordercolor="#eeeeee"
     borderopacity="1"
     inkscape:showpageshadow="0"
     inkscape:pageopacity="0"
     inkscape:pagecheckerboard="0"
     inkscape:deskcolor="#505050"
     inkscape:zoom="1.3568376"
     inkscape:cx="301.80472"
     inkscape:cy="157.35118"
     inkscape:window-width="1600"
     inkscape:window-height="837"
     inkscape:window-x="-8"
     inkscape:window-y="-8"
     inkscape:window-maximized="1"
     inkscape:current-layer="svg4" />
  <title
     id="title1">icons8-cinema-4d-240</title>
  <style
     id="style1">
		.s0 { fill: #616161 } 
		.s1 { fill: #212121 } 
		.s2 { fill: #3949ab } 
		.s3 { fill: #e0e0e0 } 
	</style>
  <rect
     style="fill:#ffffff;fill-opacity:1;stroke-width:6.59047;stroke-linecap:round;stroke-linejoin:round"
     id="rect4"
     width="240.23846"
     height="233.47218"
     x="0.0085810935"
     y="0.52114326"
     ry="32.428345" />
  <g
     id="g4">
    <path
       fill-rule="evenodd"
       class="s0"
       d="m126.1 226.4c-57.6 0-104.2-49.1-104.2-109.9 0-60.8 46.6-109.9 104.2-109.9 57.7 0 104.3 49.1 104.3 109.9 0 60.8-46.6 109.9-104.3 109.9z"
       id="path1" />
    <path
       fill-rule="evenodd"
       class="s1"
       d="m145.8 175.3c-46.7 0-84.5-36.6-84.5-81.8 0-45.2 37.8-81.8 84.5-81.8 46.8 0 84.6 36.6 84.6 81.8 0 45.2-37.8 81.8-84.6 81.8z"
       id="path2" />
    <path
       class="s2"
       d="m140.2 17.9c0 0 28.2 11.3 16.3 21.3-6 5.1-13.6 7.8-20.7 11.1-8.2 3.9-16.7 7.2-24.1 12.6-5.7 4.1-11 8.5-14.8 14.4-4.6 7-7.3 14.7-7.7 23.2-0.5 7.6 0.9 14.9 4.1 21.7 4.5 9.8 11.8 17 21.4 21.9 6.8 3.5 14.1 5.2 21.7 5 9-0.2 17.2-2.7 24.6-7.9 4.2-2.8 7.5-6.5 10.7-10.5 3.7-4.7 6.6-9.7 9.1-15 3.2-6.5 5.5-13.4 8.2-20.2 2-5.2 4-10.4 7.1-15 11.7-17.5 23-0.6 23-0.6 0 0-5.6-22.6-22.6-39.5-16.9-16.9-56.3-22.5-56.3-22.5z"
       id="path3" />
    <path
       class="s3"
       d="m202.2 91.2c-2.5 31.6-8.7 55.2-17.3 72.8-12.9 32.1-45.6 54-83 50.8-39.3-3.4-71.1-35.6-74.1-74.9-2.4-31.2 12.7-59 36.5-74.7 19.5-14.4 46.8-20.1 70.3-24.8 19-3.8 28.4-9.5 32.5-15.4 4-5.8 0.9-13.9-5.7-16.4-15.2-5.8-31.9-8.6-49.4-7.3-60.5 4.5-108.1 56.7-107 117.4 1.2 66.4 58.4 119.1 126.4 112.8 51.7-4.7 94.5-44.6 103-95.8 3.7-22.5 0.7-43.9-7.1-62.8-3.6-8.9-16.1-9.7-20.4-1.1-3.3 6.5-4.4 15.3-4.7 19.4z"
       id="path4" />
  </g>
</svg>
