<?xml version="1.0" encoding="UTF-8" standalone="no"?>
<!-- Generator: Adobe Illustrator 24.1.0, SVG Export Plug-In . SVG Version: 6.00 Build 0)  -->

<svg
   version="1.1"
   id="Layer_1"
   x="0px"
   y="0px"
   viewBox="0 0 60 60"
   xml:space="preserve"
   sodipodi:docname="Iluminacion.svg"
   inkscape:version="1.4 (86a8ad7, 2024-10-11)"
   width="60"
   height="60"
   xmlns:inkscape="http://www.inkscape.org/namespaces/inkscape"
   xmlns:sodipodi="http://sodipodi.sourceforge.net/DTD/sodipodi-0.dtd"
   xmlns="http://www.w3.org/2000/svg"
   xmlns:svg="http://www.w3.org/2000/svg"><defs
   id="defs3"><clipPath
     clipPathUnits="userSpaceOnUse"
     id="clipPath504"><path
       d="M 0,800 H 800 V 0 H 0 Z"
       transform="translate(-655.97662,-212.8887)"
       id="path504" /></clipPath><clipPath
     clipPathUnits="userSpaceOnUse"
     id="clipPath506"><path
       d="M 0,800 H 800 V 0 H 0 Z"
       transform="translate(-677.53222,-206.082)"
       id="path506" /></clipPath><clipPath
     clipPathUnits="userSpaceOnUse"
     id="clipPath508"><path
       d="M 0,800 H 800 V 0 H 0 Z"
       transform="translate(-642.46871,-184.11911)"
       id="path508" /></clipPath><clipPath
     clipPathUnits="userSpaceOnUse"
     id="clipPath510"><path
       d="M 0,800 H 800 V 0 H 0 Z"
       transform="translate(-666.14942,-193.49801)"
       id="path510" /></clipPath></defs><sodipodi:namedview
   id="namedview3"
   pagecolor="#505050"
   bordercolor="#eeeeee"
   borderopacity="1"
   inkscape:showpageshadow="0"
   inkscape:pageopacity="0"
   inkscape:pagecheckerboard="0"
   inkscape:deskcolor="#505050"
   inkscape:zoom="3.8377163"
   inkscape:cx="20.194301"
   inkscape:cy="55.371472"
   inkscape:window-width="1600"
   inkscape:window-height="837"
   inkscape:window-x="-8"
   inkscape:window-y="-8"
   inkscape:window-maximized="1"
   inkscape:current-layer="Layer_1" />
<style
   type="text/css"
   id="style1">
	.st0{fill:#001E36;}
	.st1{fill:#31A8FF;}
</style>

<style
   type="text/css"
   id="style1-8">
	.st0{fill:#001E36;}
	.st1{fill:#31A8FF;}
</style><style
   type="text/css"
   id="style1-2">
	.st0{fill:#00005B;}
	.st1{fill:#9999FF;}
</style><style
   id="style1-4">
		.s0 { fill: #09a1a1 } 
		.s1 { fill: #001717 } 
		.s2 { fill: #015051 } 
		.s3 { fill: #016b6b } 
		.s4 { fill: #002122 } 
		.s5 { fill: #013535 } 
		.s6 { fill: #ffffff } 
	</style><style
   type="text/css"
   id="style1-5">
	.st0{fill:#001E36;}
	.st1{fill:#31A8FF;}
</style><style
   type="text/css"
   id="style1-2-5">
	.st0{fill:#00005B;}
	.st1{fill:#9999FF;}
</style><style
   id="style1-4-1">
		.s0 { fill: #09a1a1 } 
		.s1 { fill: #001717 } 
		.s2 { fill: #015051 } 
		.s3 { fill: #016b6b } 
		.s4 { fill: #002122 } 
		.s5 { fill: #013535 } 
		.s6 { fill: #ffffff } 
	</style><style
   type="text/css"
   id="style1-52">
	.st0{fill:#001E36;}
	.st1{fill:#31A8FF;}
</style><style
   type="text/css"
   id="style1-2-7">
	.st0{fill:#00005B;}
	.st1{fill:#9999FF;}
</style><style
   id="style1-4-6">
		.s0 { fill: #09a1a1 } 
		.s1 { fill: #001717 } 
		.s2 { fill: #015051 } 
		.s3 { fill: #016b6b } 
		.s4 { fill: #002122 } 
		.s5 { fill: #013535 } 
		.s6 { fill: #ffffff } 
	</style><style
   type="text/css"
   id="style1-3">
	.st0{fill:#001E36;}
	.st1{fill:#31A8FF;}
</style><style
   type="text/css"
   id="style1-2-2">
	.st0{fill:#00005B;}
	.st1{fill:#9999FF;}
</style><style
   id="style1-4-2">
		.s0 { fill: #09a1a1 } 
		.s1 { fill: #001717 } 
		.s2 { fill: #015051 } 
		.s3 { fill: #016b6b } 
		.s4 { fill: #002122 } 
		.s5 { fill: #013535 } 
		.s6 { fill: #ffffff } 
	</style><g
   id="g611"
   transform="matrix(0.34983313,0,0,0.34983313,-280.72664,-264.31305)"><path
     id="path503"
     d="m 0,0 c 0.32,-0.736 1.113,-2.434 3.164,-2.434 h 14.017 c 0.717,0 2.427,0.25 3.209,2.516 l 4.462,8.578 0.106,0.236 c 0.321,0.85 0.188,1.799 -0.372,2.606 -0.648,0.934 -1.765,1.537 -2.851,1.537 H -1.384 c -1.085,0 -2.159,-0.541 -2.803,-1.412 -0.572,-0.77 -0.74,-1.721 -0.469,-2.6 z"
     style="fill:#c31a0f;fill-opacity:1;fill-rule:nonzero;stroke:none"
     transform="matrix(1.3333333,0,0,-1.3333333,874.63547,782.81507)"
     clip-path="url(#clipPath504)" /><path
     id="path505"
     d="m 0,0 v -14.021 c 0,-0.715 0.25,-2.424 2.517,-3.208 l 8.578,-4.462 0.24,-0.108 c 0.294,-0.113 0.606,-0.166 0.93,-0.166 1.681,0 3.215,1.619 3.215,3.399 V 4.549 c 0,1.844 -1.455,3.4 -3.181,3.4 -0.278,0 -0.561,-0.043 -0.83,-0.127 L 2.437,3.162 C 1.692,2.846 0,2.051 0,0"
     style="fill:#c31a0f;fill-opacity:1;fill-rule:nonzero;stroke:none"
     transform="matrix(1.3333333,0,0,-1.3333333,903.37627,791.89067)"
     clip-path="url(#clipPath506)" /><path
     id="path507"
     d="m 0,0 c 0.279,0 0.561,0.041 0.831,0.123 l 9.032,4.66 c 0.738,0.317 2.438,1.11 2.438,3.16 v 14.022 c 0,0.719 -0.255,2.428 -2.52,3.211 l -8.576,4.459 -0.239,0.111 c -0.298,0.111 -0.611,0.166 -0.93,0.166 -1.682,0 -3.216,-1.619 -3.216,-3.398 V 3.4 C -3.182,1.555 -1.726,0 0,0"
     style="fill:#c31a0f;fill-opacity:1;fill-rule:nonzero;stroke:none"
     transform="matrix(1.3333333,0,0,-1.3333333,856.62493,821.17453)"
     clip-path="url(#clipPath508)" /><path
     id="path509"
     d="m 0,0 c -3.072,0 -5.574,2.502 -5.574,5.576 0,3.074 2.502,5.576 5.574,5.576 3.076,0 5.575,-2.502 5.575,-5.576 C 5.575,2.5 3.076,0 0,0 m 24.301,-79.318 c 0.072,0.525 -0.034,1.08 -0.355,1.55 L 14.911,-64.6 c 0.225,-0.132 0.516,-0.138 0.744,0.022 0.313,0.217 0.389,0.646 0.175,0.957 l -3.137,4.504 c -0.212,0.31 -0.642,0.387 -0.957,0.17 -0.205,-0.145 -0.298,-0.385 -0.277,-0.621 l -9.264,13.5 v 5.884 c 1.198,0.555 2.036,1.756 2.036,3.159 0,1.402 -0.838,2.603 -2.036,3.158 v 12.584 h 9.364 c 1.086,0 2.157,0.539 2.803,1.412 0.573,0.767 0.74,1.719 0.473,2.6 l -4.66,9.035 C 9.858,-7.498 9.063,-5.803 7.013,-5.803 H 2.195 v 1.668 c 4.445,1.002 7.775,4.973 7.775,9.713 0,5.494 -4.469,9.963 -9.964,9.963 -5.491,0 -9.96,-4.471 -9.96,-9.963 0,-4.74 3.328,-8.711 7.771,-9.713 v -1.668 h -4.815 c -0.717,0 -2.432,-0.25 -3.209,-2.517 l -4.462,-8.576 -0.11,-0.243 c -0.321,-0.851 -0.182,-1.8 0.378,-2.605 0.658,-0.945 1.744,-1.535 2.85,-1.535 h 9.363 v -12.584 c -1.199,-0.553 -2.032,-1.756 -2.032,-3.158 0,-1.403 0.833,-2.604 2.032,-3.159 v -5.884 l -9.293,-13.54 c 0.038,0.249 -0.059,0.506 -0.28,0.661 -0.309,0.216 -0.736,0.14 -0.956,-0.17 l -3.134,-4.504 c -0.216,-0.311 -0.136,-0.738 0.172,-0.957 0.257,-0.178 0.582,-0.147 0.813,0.039 l -9.072,-13.227 c -0.328,-0.47 -0.433,-1.025 -0.357,-1.551 -1.791,-0.167 -3.047,-0.542 -3.047,-0.972 0,-0.596 2.335,-1.078 5.211,-1.078 2.882,0 5.214,0.48 5.214,1.078 0,0.412 -1.131,0.765 -2.781,0.947 l 17.515,25.524 v -19.11 c 0,-0.26 0.05,-0.5 0.131,-0.728 -1.852,-0.164 -3.148,-0.543 -3.148,-0.987 0,-0.595 2.337,-1.078 5.213,-1.078 2.877,0 5.212,0.483 5.212,1.078 0,0.444 -1.294,0.823 -3.148,0.987 0.08,0.228 0.129,0.468 0.129,0.728 v 19.106 l 17.519,-25.524 c -1.651,-0.181 -2.783,-0.537 -2.783,-0.949 0,-0.596 2.332,-1.078 5.211,-1.078 2.876,0 5.211,0.48 5.211,1.078 -0.019,0.432 -1.269,0.803 -3.063,0.973"
     style="fill:#c31a0f;fill-opacity:1;fill-rule:nonzero;stroke:none"
     transform="matrix(1.3333333,0,0,-1.3333333,888.1992,808.66933)"
     clip-path="url(#clipPath510)" /></g></svg>
