<?xml version="1.0" encoding="UTF-8" standalone="no"?>
<svg
   width="60"
   height="60"
   viewBox="0 0 60 60"
   fill="none"
   version="1.1"
   id="svg2"
   sodipodi:docname="react-60.svg"
   inkscape:version="1.4.1-rc (d9e8dc1fe0, 2025-03-10)"
   xmlns:inkscape="http://www.inkscape.org/namespaces/inkscape"
   xmlns:sodipodi="http://sodipodi.sourceforge.net/DTD/sodipodi-0.dtd"
   xmlns="http://www.w3.org/2000/svg"
   xmlns:svg="http://www.w3.org/2000/svg">
  <defs
     id="defs2" />
  <sodipodi:namedview
     id="namedview2"
     pagecolor="#505050"
     bordercolor="#ffffff"
     borderopacity="1"
     inkscape:showpageshadow="0"
     inkscape:pageopacity="0"
     inkscape:pagecheckerboard="1"
     inkscape:deskcolor="#505050"
     inkscape:zoom="9.3918129"
     inkscape:cx="37.585928"
     inkscape:cy="43.708281"
     inkscape:window-width="1880"
     inkscape:window-height="1011"
     inkscape:window-x="0"
     inkscape:window-y="0"
     inkscape:window-maximized="1"
     inkscape:current-layer="svg2" />
  <g
     id="g2"
     transform="matrix(0.32725985,0,0,0.32725985,5.4555112,2.0322587)">
    <path
       d="m 150,85.4756 c 0,-9.9368 -12.444,-19.3538 -31.523,-25.1936 4.403,-19.4456 2.446,-34.9164 -6.176,-39.8696 -1.987,-1.1618 -4.311,-1.7121 -6.849,-1.7121 v 6.8181 c 1.407,0 2.538,0.2752 3.486,0.795 4.158,2.3848 5.962,11.4655 4.556,23.1451 -0.337,2.874 -0.887,5.9009 -1.56,8.989 C 105.942,56.9799 99.3987,55.8486 92.5194,55.1148 88.3918,49.4585 84.1113,44.3219 79.8002,39.8274 89.7676,30.5633 99.1235,25.4879 105.483,25.4879 v -6.8182 c -8.408,0 -19.4149,5.9926 -30.5441,16.3881 C 63.8096,24.7235 52.8027,18.792 44.3946,18.792 v 6.8182 c 6.329,0 15.7155,5.0448 25.6829,14.2478 -4.2805,4.4945 -8.561,9.6005 -12.6274,15.2568 -6.9099,0.7338 -13.453,1.8651 -19.4456,3.3633 -0.7032,-3.0575 -1.223,-6.0233 -1.5899,-8.8667 -1.437,-11.6796 0.3363,-20.7603 4.4639,-23.1757 0.9173,-0.5504 2.1097,-0.795 3.5161,-0.795 v -6.8181 c -2.5683,0 -4.892,0.5503 -6.9099,1.7121 C 28.8932,25.4879 26.967,40.9281 31.4003,60.3126 12.3828,66.1829 0,75.5694 0,85.4756 c 0,9.9368 12.4439,19.3534 31.5226,25.1934 -4.4027,19.446 -2.446,34.917 6.1761,39.87 1.9874,1.162 4.3111,1.712 6.8794,1.712 8.408,0 19.415,-5.993 30.5442,-16.388 11.1292,10.334 22.1362,16.266 30.5447,16.266 2.568,0 4.892,-0.551 6.909,-1.712 8.592,-4.954 10.518,-20.394 6.085,-39.778 C 137.617,104.799 150,95.3819 150,85.4756 Z M 110.192,65.0822 c -1.132,3.9442 -2.538,8.0106 -4.128,12.0771 -1.254,-2.446 -2.568,-4.892 -4.005,-7.338 -1.407,-2.446 -2.9049,-4.8308 -4.4031,-7.1545 4.3421,0.6421 8.5301,1.437 12.5361,2.4154 z M 96.1883,97.6444 c -2.3848,4.1276 -4.8308,8.0416 -7.3685,11.6796 -4.5556,0.397 -9.1724,0.611 -13.8198,0.611 -4.6168,0 -9.2336,-0.214 -13.7587,-0.58 -2.5377,-3.639 -5.0142,-7.522 -7.3991,-11.6189 -2.3237,-4.0053 -4.4333,-8.0717 -6.3595,-12.1687 1.8956,-4.0971 4.0359,-8.1941 6.329,-12.1994 2.3848,-4.1276 4.8308,-8.0412 7.3685,-11.6796 4.5556,-0.3974 9.1724,-0.6115 13.8198,-0.6115 4.6168,0 9.2336,0.2141 13.7587,0.581 2.5377,3.6384 5.0142,7.5214 7.3991,11.6184 2.3237,4.0053 4.4332,8.0717 6.3592,12.1688 -1.926,4.097 -4.0356,8.194 -6.3287,12.1993 z m 9.8757,-3.9747 c 1.651,4.097 3.057,8.1943 4.219,12.1683 -4.005,0.979 -8.224,1.804 -12.5965,2.446 1.4982,-2.354 2.9965,-4.769 4.4025,-7.246 1.407,-2.4458 2.721,-4.9223 3.975,-7.3683 z M 75.0612,126.293 c -2.8435,-2.935 -5.687,-6.207 -8.4998,-9.784 2.7517,0.122 5.5646,0.214 8.408,0.214 2.8741,0 5.7175,-0.061 8.4998,-0.214 -2.7517,3.577 -5.5952,6.849 -8.408,9.784 z M 52.3135,108.284 c -4.3416,-0.642 -8.5304,-1.437 -12.5357,-2.415 1.1313,-3.944 2.5377,-8.0106 4.1276,-12.077 1.2536,2.446 2.5683,4.892 4.0053,7.338 1.437,2.446 2.9046,4.831 4.4028,7.154 z M 74.9083,44.6583 c 2.8434,2.9351 5.6869,6.2067 8.4998,9.7839 -2.7518,-0.1223 -5.5646,-0.214 -8.4081,-0.214 -2.874,0 -5.7175,0.0611 -8.4998,0.214 2.7517,-3.5772 5.5952,-6.8488 8.4081,-9.7839 z M 52.2829,62.6668 c -1.4981,2.3543 -2.9963,4.7697 -4.4028,7.2463 -1.4064,2.4459 -2.7211,4.8919 -3.9747,7.3379 -1.651,-4.097 -3.0575,-8.194 -4.2193,-12.1688 4.0053,-0.9478 8.2246,-1.7733 12.5968,-2.4154 z M 24.6127,100.946 C 13.7892,96.3297 6.78761,90.2759 6.78761,85.4756 c 0,-4.8002 7.00159,-10.8846 17.82509,-15.4708 2.6295,-1.1313 5.5035,-2.1403 8.4692,-3.0881 1.7428,5.9927 4.0359,12.23 6.8794,18.6201 -2.8129,6.3595 -5.0754,12.5662 -6.7876,18.5282 -3.0269,-0.948 -5.901,-1.987 -8.561,-3.119 z m 16.4493,43.692 c -4.1582,-2.385 -5.9621,-11.466 -4.5557,-23.145 0.3363,-2.874 0.8867,-5.901 1.5593,-8.989 5.9927,1.467 12.5357,2.599 19.415,3.332 4.1276,5.657 8.4081,10.793 12.7192,15.288 -9.9674,9.264 -19.3233,14.339 -25.6829,14.339 -1.3758,-0.03 -2.5377,-0.305 -3.4549,-0.825 z m 72.523,-23.298 c 1.437,11.679 -0.336,20.76 -4.464,23.176 -0.917,0.55 -2.109,0.795 -3.516,0.795 -6.3286,0 -15.7151,-5.045 -25.6824,-14.248 4.2804,-4.495 8.5609,-9.601 12.6273,-15.257 6.91,-0.734 13.4531,-1.865 19.4461,-3.363 0.703,3.088 1.253,6.053 1.589,8.897 z m 11.772,-20.394 c -2.63,1.132 -5.504,2.141 -8.47,3.089 -1.742,-5.9931 -4.035,-12.2304 -6.879,-18.6205 2.813,-6.3596 5.076,-12.5663 6.788,-18.5284 3.027,0.9479 5.901,1.9874 8.591,3.1187 10.824,4.6168 17.825,10.6706 17.825,15.4708 -0.03,4.8003 -7.032,10.8847 -17.855,15.4704 z"
       fill="#61dafb"
       id="path1" />
    <path
       d="m 74.9694,99.4483 c 7.7169,0 13.9727,-6.2558 13.9727,-13.9727 0,-7.7169 -6.2558,-13.9727 -13.9727,-13.9727 -7.7169,0 -13.9726,6.2558 -13.9726,13.9727 0,7.7169 6.2557,13.9727 13.9726,13.9727 z"
       fill="#61dafb"
       id="path2" />
  </g>
</svg>
