<?xml version="1.0" encoding="UTF-8" standalone="no"?>
<!-- Generator: Adobe Illustrator 24.1.0, SVG Export Plug-In . SVG Version: 6.00 Build 0)  -->

<svg
   version="1.1"
   id="Layer_1"
   x="0px"
   y="0px"
   viewBox="0 0 60 60"
   xml:space="preserve"
   sodipodi:docname="video.svg"
   inkscape:version="1.4 (86a8ad7, 2024-10-11)"
   width="60"
   height="60"
   xmlns:inkscape="http://www.inkscape.org/namespaces/inkscape"
   xmlns:sodipodi="http://sodipodi.sourceforge.net/DTD/sodipodi-0.dtd"
   xmlns="http://www.w3.org/2000/svg"
   xmlns:svg="http://www.w3.org/2000/svg"><defs
   id="defs3"><clipPath
     clipPathUnits="userSpaceOnUse"
     id="clipPath504"><path
       d="M 0,800 H 800 V 0 H 0 Z"
       transform="translate(-655.97662,-212.8887)"
       id="path504" /></clipPath><clipPath
     clipPathUnits="userSpaceOnUse"
     id="clipPath506"><path
       d="M 0,800 H 800 V 0 H 0 Z"
       transform="translate(-677.53222,-206.082)"
       id="path506" /></clipPath><clipPath
     clipPathUnits="userSpaceOnUse"
     id="clipPath508"><path
       d="M 0,800 H 800 V 0 H 0 Z"
       transform="translate(-642.46871,-184.11911)"
       id="path508" /></clipPath><clipPath
     clipPathUnits="userSpaceOnUse"
     id="clipPath510"><path
       d="M 0,800 H 800 V 0 H 0 Z"
       transform="translate(-666.14942,-193.49801)"
       id="path510" /></clipPath></defs><sodipodi:namedview
   id="namedview3"
   pagecolor="#505050"
   bordercolor="#eeeeee"
   borderopacity="1"
   inkscape:showpageshadow="0"
   inkscape:pageopacity="0"
   inkscape:pagecheckerboard="0"
   inkscape:deskcolor="#505050"
   inkscape:zoom="3.8377163"
   inkscape:cx="21.627445"
   inkscape:cy="24.363448"
   inkscape:window-width="1600"
   inkscape:window-height="837"
   inkscape:window-x="-8"
   inkscape:window-y="-8"
   inkscape:window-maximized="1"
   inkscape:current-layer="Layer_1" />
<style
   type="text/css"
   id="style1">
	.st0{fill:#001E36;}
	.st1{fill:#31A8FF;}
</style>

<style
   type="text/css"
   id="style1-8">
	.st0{fill:#001E36;}
	.st1{fill:#31A8FF;}
</style><style
   type="text/css"
   id="style1-2">
	.st0{fill:#00005B;}
	.st1{fill:#9999FF;}
</style><style
   id="style1-4">
		.s0 { fill: #09a1a1 } 
		.s1 { fill: #001717 } 
		.s2 { fill: #015051 } 
		.s3 { fill: #016b6b } 
		.s4 { fill: #002122 } 
		.s5 { fill: #013535 } 
		.s6 { fill: #ffffff } 
	</style><style
   type="text/css"
   id="style1-5">
	.st0{fill:#001E36;}
	.st1{fill:#31A8FF;}
</style><style
   type="text/css"
   id="style1-2-5">
	.st0{fill:#00005B;}
	.st1{fill:#9999FF;}
</style><style
   id="style1-4-1">
		.s0 { fill: #09a1a1 } 
		.s1 { fill: #001717 } 
		.s2 { fill: #015051 } 
		.s3 { fill: #016b6b } 
		.s4 { fill: #002122 } 
		.s5 { fill: #013535 } 
		.s6 { fill: #ffffff } 
	</style><style
   type="text/css"
   id="style1-52">
	.st0{fill:#001E36;}
	.st1{fill:#31A8FF;}
</style><style
   type="text/css"
   id="style1-2-7">
	.st0{fill:#00005B;}
	.st1{fill:#9999FF;}
</style><style
   id="style1-4-6">
		.s0 { fill: #09a1a1 } 
		.s1 { fill: #001717 } 
		.s2 { fill: #015051 } 
		.s3 { fill: #016b6b } 
		.s4 { fill: #002122 } 
		.s5 { fill: #013535 } 
		.s6 { fill: #ffffff } 
	</style><style
   type="text/css"
   id="style1-3">
	.st0{fill:#001E36;}
	.st1{fill:#31A8FF;}
</style><style
   type="text/css"
   id="style1-2-2">
	.st0{fill:#00005B;}
	.st1{fill:#9999FF;}
</style><style
   id="style1-4-2">
		.s0 { fill: #09a1a1 } 
		.s1 { fill: #001717 } 
		.s2 { fill: #015051 } 
		.s3 { fill: #016b6b } 
		.s4 { fill: #002122 } 
		.s5 { fill: #013535 } 
		.s6 { fill: #ffffff } 
	</style><g
   id="g2"
   transform="matrix(0.13134448,0,0,0.13134448,-104.44298,-135.14913)"><path
     id="path182"
     style="fill:#33416d;fill-opacity:1;fill-rule:nonzero;stroke:none;stroke-width:0.133333"
     d="M 1095.3586,1236.1893 H 869.47331 c -9.48,0 -17.16666,7.6854 -17.16666,17.1667 V 1367.8 c 0,9.48 7.68666,17.16 17.16666,17.16 h 28.06933 55.3 v -27.44 c 0,-5.76 4.664,-10.4133 10.416,-10.4133 h 38.31466 c 5.752,0 10.416,4.6533 10.416,10.4133 v 27.44 h 55.2987 28.0706 c 9.48,0 17.1654,-7.68 17.1654,-17.16 v -114.444 c 0,-9.4813 -7.6854,-17.1667 -17.1654,-17.1667" /><path
     id="path184"
     style="fill:#33416d;fill-opacity:1;fill-rule:nonzero;stroke:none;stroke-width:0.133333"
     d="m 911.67331,1215.8947 c -11.45467,0 -20.74,-9.2854 -20.74,-20.74 0,-11.4534 9.28533,-20.74 20.74,-20.74 11.45467,0 20.74,9.2866 20.74,20.74 0,11.4546 -9.28533,20.74 -20.74,20.74 z m 0,-83.924 c -34.896,0 -63.184,28.288 -63.184,63.184 0,34.896 28.288,63.1853 63.184,63.1853 34.896,0 63.184,-28.2893 63.184,-63.1853 0,-34.896 -28.288,-63.184 -63.184,-63.184" /><path
     id="path186"
     style="fill:#33416d;fill-opacity:1;fill-rule:nonzero;stroke:none;stroke-width:0.133333"
     d="m 1036.4346,1209.0493 c -13.3013,0 -24.084,-10.784 -24.084,-24.0853 0,-13.3013 10.7827,-24.0853 24.084,-24.0853 13.3027,0 24.0854,10.784 24.0854,24.0853 0,13.3013 -10.7827,24.0853 -24.0854,24.0853 z m 0,-97.4613 c -40.52396,0 -73.37462,32.852 -73.37462,73.376 0,40.524 32.85066,73.376 73.37462,73.376 40.5254,0 73.376,-32.852 73.376,-73.376 0,-40.524 -32.8506,-73.376 -73.376,-73.376" /><path
     id="path188"
     style="fill:#94afdb;fill-opacity:1;fill-rule:nonzero;stroke:none;stroke-width:0.133333"
     d="M 1089.3586,1278.696 H 877.20131 v -13.0787 h 212.15729 v 13.0787" /><path
     id="path190"
     style="fill:#ffffff;fill-opacity:1;fill-rule:nonzero;stroke:none;stroke-width:0.133333"
     d="m 925.91198,1315.04 h -48.71067 v -13.0787 h 48.71067 v 13.0787" /><path
     id="path192"
     style="fill:#94afdb;fill-opacity:1;fill-rule:nonzero;stroke:none;stroke-width:0.133333"
     d="m 925.91198,1357.32 h -48.71067 v -29.4213 h 48.71067 v 29.4213" /><path
     id="path194"
     style="fill:#33416d;fill-opacity:1;fill-rule:nonzero;stroke:none;stroke-width:0.133333"
     d="m 997.64264,1403.16 h -30.45466 c -6.21867,0 -11.26134,-5.04 -11.26134,-11.2533 V 1361.44 c 0,-6.2133 5.04267,-11.2533 11.26134,-11.2533 h 30.45466 c 6.21996,0 11.26266,5.04 11.26266,11.2533 v 30.4667 c 0,6.2133 -5.0427,11.2533 -11.26266,11.2533" /><path
     id="path196"
     style="fill:#33416d;fill-opacity:1;fill-rule:nonzero;stroke:none;stroke-width:0.133333"
     d="m 1131.4226,1358.4933 h -12.768 v -95.8346 h 12.768 v 95.8346" /><path
     id="path198"
     style="fill:#33416d;fill-opacity:1;fill-rule:nonzero;stroke:none;stroke-width:0.133333"
     d="m 1137.612,1262.6587 v 95.8613 l 53.7146,30.7333 c 3.28,1.88 7.3654,-0.4933 7.3654,-4.2666 v -63.244 -22.3067 -63.244 c 0,-3.78 -4.0854,-6.1493 -7.3654,-4.272 l -53.7146,30.7387" /></g></svg>
