<?xml version="1.0" encoding="UTF-8" standalone="no"?>
<!-- Generator: Adobe Illustrator 24.1.0, SVG Export Plug-In . SVG Version: 6.00 Build 0)  -->

<svg
   version="1.1"
   id="Layer_1"
   x="0px"
   y="0px"
   viewBox="0 0 240 234"
   style="enable-background:new 0 0 240 234;"
   xml:space="preserve"
   sodipodi:docname="zbrush-240.svg"
   inkscape:version="1.4 (86a8ad7, 2024-10-11)"
   xmlns:inkscape="http://www.inkscape.org/namespaces/inkscape"
   xmlns:sodipodi="http://sodipodi.sourceforge.net/DTD/sodipodi-0.dtd"
   xmlns="http://www.w3.org/2000/svg"
   xmlns:svg="http://www.w3.org/2000/svg"><defs
   id="defs3" /><sodipodi:namedview
   id="namedview3"
   pagecolor="#505050"
   bordercolor="#eeeeee"
   borderopacity="1"
   inkscape:showpageshadow="0"
   inkscape:pageopacity="0"
   inkscape:pagecheckerboard="0"
   inkscape:deskcolor="#505050"
   inkscape:zoom="0.95942907"
   inkscape:cx="104.7498"
   inkscape:cy="124.55324"
   inkscape:window-width="1600"
   inkscape:window-height="837"
   inkscape:window-x="-8"
   inkscape:window-y="-8"
   inkscape:window-maximized="1"
   inkscape:current-layer="Layer_1" />
<style
   type="text/css"
   id="style1">
	.st0{fill:#001E36;}
	.st1{fill:#31A8FF;}
</style>

<style
   type="text/css"
   id="style1-2">
	.st0{fill:#00005B;}
	.st1{fill:#9999FF;}
</style><style
   id="style1-4">
		.s0 { fill: #09a1a1 } 
		.s1 { fill: #001717 } 
		.s2 { fill: #015051 } 
		.s3 { fill: #016b6b } 
		.s4 { fill: #002122 } 
		.s5 { fill: #013535 } 
		.s6 { fill: #ffffff } 
	</style><g
   style="fill:#000000"
   id="g3"
   transform="matrix(0.46966849,0,0,0.46966849,-0.2351362,-3.2349841)"><g
     id="2069a460dcf28295e231f3111e0439b1">

<path
   display="inline"
   d="m 262.97,83.259 c -1.951,-9.768 0.54,-19.893 7.295,-30.377 7.989,-12.616 17.402,-19.539 28.24,-20.964 14.036,-1.597 27.002,5.861 39.082,22.03 11.192,15.098 16.169,29.311 14.926,42.28 -0.182,7.816 -11.723,12.611 -34.642,14.208 -17.946,1.425 -30.912,-0.354 -39.269,-5.507 C 269.901,99.781 264.748,92.5 262.97,83.259 Z m 247.646,395.275 c -1.242,2.658 -5.675,2.305 -13.323,-1.07 -12.966,-6.216 -27.355,-15.634 -43.52,-28.427 -17.946,-14.208 -28.431,-25.4 -31.271,-33.575 -0.531,-1.955 -0.35,-4.437 0.712,-7.635 l 3.38,-9.064 c 2.305,-8.347 -0.717,-16.694 -9.064,-25.051 -4.082,-4.083 -9.59,-7.988 -16.345,-11.723 -15.806,-8.347 -38.548,-15.451 -68.57,-21.14 -31.094,-5.861 -60.754,-9.236 -89.003,-9.944 l -34.287,1.778 c -9.06,10.479 -17.761,20.247 -26.117,29.306 -7.104,7.463 -14.027,14.391 -20.782,20.787 -27.179,24.339 -53.645,42.816 -79.585,55.604 -35.354,17.234 -61.824,22.207 -79.767,14.567 -2.309,-1.597 -3.021,-4.26 -2.309,-7.994 l 3.198,-9.948 c 12.258,-26.647 32.332,-50.986 59.869,-73.017 2.309,-1.95 4.795,-3.729 7.104,-5.502 21.852,-16.169 51.34,-33.222 88.472,-50.81 24.334,-10.479 44.413,-17.407 60.046,-20.782 l 14.744,-20.433 c 5.861,-7.281 12.076,-14.209 18.296,-20.787 13.323,-14.39 26.997,-27.709 41.396,-39.613 1.239,-0.535 1.42,-1.243 0.703,-2.132 -7.28,-4.083 -19.181,-11.728 -35.344,-22.919 -13.864,-9.413 -24.697,-15.987 -32.519,-19.544 -24.511,-11.01 -49.562,-7.812 -75.316,9.596 -15.46,10.302 -23.808,21.675 -24.696,34.11 l -0.89,15.279 c 0.89,4.26 -12.788,11.368 -40.856,21.316 -5.153,1.598 -9.417,3.018 -12.97,3.906 -6.22,1.243 -10.484,1.425 -12.612,0.354 l -0.712,-0.354 -1.951,-1.243 c -2.49,-4.972 9.237,-22.029 34.996,-51.34 1.778,-1.991 3.574,-3.924 5.38,-5.83 l 0.06,-0.077 0.059,-0.04 c 46.636,-49.055 101.638,-68.04 164.863,-56.762 17.407,3.021 46.196,13.678 86.521,31.801 4.433,-4.445 12.081,-9.771 22.561,-15.814 13.324,-7.635 24.334,-11.727 32.686,-11.899 18.301,-0.181 29.842,6.746 34.642,21.137 2.84,8.71 -3.557,20.968 -19.362,36.777 -16.341,16.699 -31.801,27.179 -46.368,31.438 -18.301,5.512 -38.198,2.313 -59.338,-9.231 -9.409,7.281 -20.07,17.765 -31.62,31.084 -0.531,0.535 -1.066,1.243 -1.597,1.778 l -27.355,32.69 -0.358,2.305 18.831,-0.707 c 13.501,0.358 27.179,2.662 41.215,7.104 38.198,12.258 70.172,27.355 95.926,45.303 12.258,8.701 24.171,18.654 35.357,29.841 11.546,11.723 22.737,24.87 33.217,39.26 9.246,12.798 17.058,25.759 23.627,38.729 9.239,18.125 12.609,30.913 9.946,38.557 z M 370.632,167.289 c 3.375,2.663 11.368,3.733 24.339,3.198 14.385,-0.535 24.161,-3.375 29.664,-8.883 2.668,-2.667 2.668,-5.33 -0.354,-7.816 -3.375,-3.021 -9.591,-3.729 -18.473,-2.49 -7.64,1.243 -15.814,3.906 -24.693,7.998 -8.705,4.083 -12.261,6.75 -10.483,7.993 z m -193.817,170.185 -4.087,-0.53 c -12.258,2.49 -23.627,5.33 -34.106,8.533 -14.743,4.791 -28.426,10.298 -41.037,16.513 -10.126,4.8 -19.544,10.131 -28.245,15.811 -27.718,17.942 -40.507,35.358 -38.198,52.229 l 2.667,3.021 c 7.281,4.8 21.671,1.065 42.988,-11.192 28.962,-16.871 54.893,-36.769 77.812,-59.869 7.64,-7.817 15.098,-15.987 22.206,-24.516 z"
   id="path1-7">

</path>

</g></g></svg>
