<?xml version="1.0" encoding="UTF-8" standalone="no"?>
<!-- Generator: Adobe Illustrator 24.1.0, SVG Export Plug-In . SVG Version: 6.00 Build 0)  -->

<svg
   version="1.1"
   id="Layer_1"
   x="0px"
   y="0px"
   viewBox="0 0 240 234"
   style="enable-background:new 0 0 240 234;"
   xml:space="preserve"
   sodipodi:docname="cinema-240-1.svg"
   inkscape:version="1.4 (86a8ad7, 2024-10-11)"
   xmlns:inkscape="http://www.inkscape.org/namespaces/inkscape"
   xmlns:sodipodi="http://sodipodi.sourceforge.net/DTD/sodipodi-0.dtd"
   xmlns="http://www.w3.org/2000/svg"
   xmlns:svg="http://www.w3.org/2000/svg"><defs
   id="defs3" /><sodipodi:namedview
   id="namedview3"
   pagecolor="#505050"
   bordercolor="#eeeeee"
   borderopacity="1"
   inkscape:showpageshadow="0"
   inkscape:pageopacity="0"
   inkscape:pagecheckerboard="0"
   inkscape:deskcolor="#505050"
   inkscape:zoom="0.95942907"
   inkscape:cx="182.92129"
   inkscape:cy="134.97611"
   inkscape:window-width="1600"
   inkscape:window-height="837"
   inkscape:window-x="-8"
   inkscape:window-y="-8"
   inkscape:window-maximized="1"
   inkscape:current-layer="Layer_1" />
<style
   type="text/css"
   id="style1">
	.st0{fill:#001E36;}
	.st1{fill:#31A8FF;}
</style>

<g
   id="g4"
   transform="translate(-0.47816324,0.50101325)"><path
     fill-rule="evenodd"
     class="s0"
     d="M 126.1,226.4 C 68.5,226.4 21.9,177.3 21.9,116.5 21.9,55.7 68.5,6.6 126.1,6.6 c 57.7,0 104.3,49.1 104.3,109.9 0,60.8 -46.6,109.9 -104.3,109.9 z"
     id="path1-0"
     style="fill:#616161" /><path
     fill-rule="evenodd"
     class="s1"
     d="m 145.8,175.3 c -46.7,0 -84.5,-36.6 -84.5,-81.8 0,-45.2 37.8,-81.8 84.5,-81.8 46.8,0 84.6,36.6 84.6,81.8 0,45.2 -37.8,81.8 -84.6,81.8 z"
     id="path2-9"
     style="fill:#212121" /><path
     class="s2"
     d="m 140.2,17.9 c 0,0 28.2,11.3 16.3,21.3 -6,5.1 -13.6,7.8 -20.7,11.1 -8.2,3.9 -16.7,7.2 -24.1,12.6 -5.7,4.1 -11,8.5 -14.8,14.4 -4.6,7 -7.3,14.7 -7.7,23.2 -0.5,7.6 0.9,14.9 4.1,21.7 4.5,9.8 11.8,17 21.4,21.9 6.8,3.5 14.1,5.2 21.7,5 9,-0.2 17.2,-2.7 24.6,-7.9 4.2,-2.8 7.5,-6.5 10.7,-10.5 3.7,-4.7 6.6,-9.7 9.1,-15 3.2,-6.5 5.5,-13.4 8.2,-20.2 2,-5.2 4,-10.4 7.1,-15 11.7,-17.5 23,-0.6 23,-0.6 0,0 -5.6,-22.6 -22.6,-39.5 C 179.6,23.5 140.2,17.9 140.2,17.9 Z"
     id="path3-4"
     style="fill:#3949ab" /><path
     class="s3"
     d="m 202.2,91.2 c -2.5,31.6 -8.7,55.2 -17.3,72.8 -12.9,32.1 -45.6,54 -83,50.8 C 62.6,211.4 30.8,179.2 27.8,139.9 25.4,108.7 40.5,80.9 64.3,65.2 83.8,50.8 111.1,45.1 134.6,40.4 153.6,36.6 163,30.9 167.1,25 171.1,19.2 168,11.1 161.4,8.6 146.2,2.8 129.5,0 112,1.3 51.5,5.8 3.9,58 5,118.7 c 1.2,66.4 58.4,119.1 126.4,112.8 51.7,-4.7 94.5,-44.6 103,-95.8 3.7,-22.5 0.7,-43.9 -7.1,-62.8 -3.6,-8.9 -16.1,-9.7 -20.4,-1.1 -3.3,6.5 -4.4,15.3 -4.7,19.4 z"
     id="path4"
     style="fill:#e0e0e0" /></g></svg>
