<svg version="1.2" xmlns="http://www.w3.org/2000/svg" viewBox="0 0 512 512" width="50" height="50">
	<title>zbrush-svgrepo-com</title>
	<style>
		.s0 { fill: #000000 } 
	</style>
	<g id="2069a460dcf28295e231f3111e0439b1">
		<path class="s0" d="m263 83.3c-2-9.8 0.5-19.9 7.3-30.4 8-12.6 17.4-19.6 28.2-21 14-1.6 27 5.9 39.1 22 11.2 15.1 16.2 29.4 14.9 42.3-0.2 7.8-11.7 12.6-34.6 14.2-18 1.5-30.9-0.3-39.3-5.5-8.7-5.1-13.9-12.4-15.6-21.6zm247.6 395.2q-1.8 4-13.3-1c-13-6.3-27.4-15.7-43.5-28.5-18-14.2-28.5-25.4-31.3-33.5-0.5-2-0.3-4.5 0.7-7.7l3.4-9q3.5-12.6-9.1-25.1c-4.1-4.1-9.6-8-16.3-11.7-15.8-8.4-38.6-15.5-68.6-21.2-31.1-5.8-60.7-9.2-89-9.9l-34.3 1.8q-13.6 15.7-26.1 29.3-10.6 11.2-20.8 20.8c-27.2 24.3-53.6 42.8-79.6 55.6-35.3 17.2-61.8 22.2-79.7 14.5-2.3-1.6-3-4.2-2.3-7.9l3.2-10c12.2-26.6 32.3-51 59.8-73 2.3-2 4.8-3.7 7.1-5.5 21.9-16.2 51.4-33.2 88.5-50.8 24.3-10.5 44.4-17.4 60.1-20.8l14.7-20.4c5.9-7.3 12.1-14.2 18.3-20.8 13.3-14.4 27-27.7 41.4-39.6 1.2-0.6 1.4-1.3 0.7-2.2-7.3-4.1-19.2-11.7-35.4-22.9-13.8-9.4-24.6-16-32.5-19.5-24.5-11-49.5-7.8-75.3 9.6-15.4 10.3-23.8 21.6-24.7 34.1l-0.9 15.3c0.9 4.2-12.8 11.3-40.8 21.3-5.2 1.6-9.4 3-13 3.9-6.2 1.2-10.5 1.4-12.6 0.3l-0.7-0.3-2-1.3c-2.5-4.9 9.3-22 35-51.3q2.7-3 5.4-5.8l0.1-0.1v-0.1c46.7-49 101.7-68 164.9-56.7 17.4 3 46.2 13.7 86.5 31.8 4.4-4.5 12.1-9.8 22.6-15.8 13.3-7.7 24.3-11.8 32.7-11.9 18.3-0.2 29.8 6.7 34.6 21.1 2.8 8.7-3.6 21-19.4 36.8q-24.5 25-46.3 31.4c-18.3 5.5-38.2 2.3-59.4-9.2-9.4 7.3-20 17.8-31.6 31.1-0.5 0.5-1.1 1.2-1.6 1.8l-27.3 32.6-0.4 2.3 18.8-0.7c13.5 0.4 27.2 2.7 41.2 7.1q57.3 18.4 96 45.3c12.2 8.7 24.1 18.7 35.3 29.9 11.6 11.7 22.8 24.9 33.2 39.2 9.3 12.8 17.1 25.8 23.7 38.8 9.2 18.1 12.6 30.9 9.9 38.5zm-140-311.2c3.4 2.7 11.4 3.7 24.4 3.2 14.4-0.5 24.1-3.4 29.6-8.9 2.7-2.7 2.7-5.3-0.3-7.8-3.4-3-9.6-3.7-18.5-2.5-7.6 1.2-15.8 3.9-24.7 8-8.7 4.1-12.2 6.7-10.5 8zm-193.8 170.2l-4.1-0.6q-18.4 3.8-34.1 8.6-22.1 7.2-41 16.5c-10.1 4.8-19.6 10.1-28.3 15.8-27.7 17.9-40.5 35.4-38.2 52.2l2.7 3.1c7.3 4.8 21.7 1 43-11.2 29-16.9 54.9-36.8 77.8-59.9 7.6-7.8 15.1-16 22.2-24.5z"/>
	</g>
</svg>